<?xml version="1.0" encoding="us-ascii" standalone="no"?><svg xmlns="http://www.w3.org/2000/svg" xmlns:xlink="http://www.w3.org/1999/xlink" contentStyleType="text/css" height="1242px" preserveAspectRatio="none" style="width:1225px;height:1242px;background:#FFFFFF;" version="1.1" viewBox="0 0 1225 1242" width="1225px" zoomAndPan="magnify"><defs/><g><line style="stroke:#181818;stroke-width:0.5;stroke-dasharray:5.0,5.0;" x1="54" x2="54" y1="83.3984" y2="1159.3516"/><line style="stroke:#181818;stroke-width:0.5;stroke-dasharray:5.0,5.0;" x1="235.5" x2="235.5" y1="83.3984" y2="1159.3516"/><line style="stroke:#181818;stroke-width:0.5;stroke-dasharray:5.0,5.0;" x1="427.5" x2="427.5" y1="83.3984" y2="1159.3516"/><line style="stroke:#181818;stroke-width:0.5;stroke-dasharray:5.0,5.0;" x1="589.5" x2="589.5" y1="83.3984" y2="1159.3516"/><line style="stroke:#181818;stroke-width:0.5;stroke-dasharray:5.0,5.0;" x1="735.5" x2="735.5" y1="83.3984" y2="1159.3516"/><line style="stroke:#181818;stroke-width:0.5;stroke-dasharray:5.0,5.0;" x1="868.5" x2="868.5" y1="83.3984" y2="1159.3516"/><line style="stroke:#181818;stroke-width:0.5;stroke-dasharray:5.0,5.0;" x1="1004.5" x2="1004.5" y1="83.3984" y2="1159.3516"/><line style="stroke:#181818;stroke-width:0.5;stroke-dasharray:5.0,5.0;" x1="1152.5" x2="1152.5" y1="83.3984" y2="1159.3516"/><text fill="#000000" font-family="Times New Roman" font-size="16" lengthAdjust="spacing" textLength="92" x="5" y="80.2773">&#1055;&#1086;&#1083;&#1100;&#1079;&#1086;&#1074;&#1072;&#1090;&#1077;&#1083;&#1100;</text><ellipse cx="54" cy="13.5" fill="#E2E2F0" rx="8" ry="8" style="stroke:#181818;stroke-width:0.5;"/><path d="M54,21.5 L54,48.5 M41,29.5 L67,29.5 M54,48.5 L41,63.5 M54,48.5 L67,63.5 " fill="none" style="stroke:#181818;stroke-width:0.5;"/><text fill="#000000" font-family="Times New Roman" font-size="16" lengthAdjust="spacing" textLength="92" x="5" y="1173.6289">&#1055;&#1086;&#1083;&#1100;&#1079;&#1086;&#1074;&#1072;&#1090;&#1077;&#1083;&#1100;</text><ellipse cx="54" cy="1185.25" fill="#E2E2F0" rx="8" ry="8" style="stroke:#181818;stroke-width:0.5;"/><path d="M54,1193.25 L54,1220.25 M41,1201.25 L67,1201.25 M54,1220.25 L41,1235.25 M54,1220.25 L67,1235.25 " fill="none" style="stroke:#181818;stroke-width:0.5;"/><rect fill="#E2E2F0" height="32.3984" rx="2.5" ry="2.5" style="stroke:#181818;stroke-width:0.5;" width="183" x="144.5" y="50"/><text fill="#000000" font-family="Times New Roman" font-size="16" lengthAdjust="spacing" textLength="169" x="151.5" y="72.2773">&#1050;&#1083;&#1080;&#1077;&#1085;&#1090;&#1089;&#1082;&#1086;&#1077; &#1087;&#1088;&#1080;&#1083;&#1086;&#1078;&#1077;&#1085;&#1080;&#1077;</text><rect fill="#E2E2F0" height="32.3984" rx="2.5" ry="2.5" style="stroke:#181818;stroke-width:0.5;" width="183" x="144.5" y="1158.3516"/><text fill="#000000" font-family="Times New Roman" font-size="16" lengthAdjust="spacing" textLength="169" x="151.5" y="1180.6289">&#1050;&#1083;&#1080;&#1077;&#1085;&#1090;&#1089;&#1082;&#1086;&#1077; &#1087;&#1088;&#1080;&#1083;&#1086;&#1078;&#1077;&#1085;&#1080;&#1077;</text><rect fill="#E2E2F0" height="32.3984" rx="2.5" ry="2.5" style="stroke:#181818;stroke-width:0.5;" width="180" x="337.5" y="50"/><text fill="#000000" font-family="Times New Roman" font-size="16" lengthAdjust="spacing" textLength="166" x="344.5" y="72.2773">&#1057;&#1077;&#1088;&#1074;&#1080;&#1089; &#1072;&#1091;&#1090;&#1077;&#1085;&#1090;&#1080;&#1092;&#1080;&#1082;&#1072;&#1094;&#1080;&#1080;</text><rect fill="#E2E2F0" height="32.3984" rx="2.5" ry="2.5" style="stroke:#181818;stroke-width:0.5;" width="180" x="337.5" y="1158.3516"/><text fill="#000000" font-family="Times New Roman" font-size="16" lengthAdjust="spacing" textLength="166" x="344.5" y="1180.6289">&#1057;&#1077;&#1088;&#1074;&#1080;&#1089; &#1072;&#1091;&#1090;&#1077;&#1085;&#1090;&#1080;&#1092;&#1080;&#1082;&#1072;&#1094;&#1080;&#1080;</text><rect fill="#E2E2F0" height="32.3984" rx="2.5" ry="2.5" style="stroke:#181818;stroke-width:0.5;" width="125" x="527.5" y="50"/><text fill="#000000" font-family="Times New Roman" font-size="16" lengthAdjust="spacing" textLength="111" x="534.5" y="72.2773">&#1057;&#1077;&#1088;&#1074;&#1080;&#1089; &#1084;&#1086;&#1076;&#1077;&#1083;&#1077;&#1081;</text><rect fill="#E2E2F0" height="32.3984" rx="2.5" ry="2.5" style="stroke:#181818;stroke-width:0.5;" width="125" x="527.5" y="1158.3516"/><text fill="#000000" font-family="Times New Roman" font-size="16" lengthAdjust="spacing" textLength="111" x="534.5" y="1180.6289">&#1057;&#1077;&#1088;&#1074;&#1080;&#1089; &#1084;&#1086;&#1076;&#1077;&#1083;&#1077;&#1081;</text><rect fill="#E2E2F0" height="32.3984" rx="2.5" ry="2.5" style="stroke:#181818;stroke-width:0.5;" width="147" x="662.5" y="50"/><text fill="#000000" font-family="Times New Roman" font-size="16" lengthAdjust="spacing" textLength="133" x="669.5" y="72.2773">&#1057;&#1077;&#1088;&#1074;&#1080;&#1089; &#1076;&#1086;&#1082;&#1091;&#1084;&#1077;&#1085;&#1090;&#1086;&#1074;</text><rect fill="#E2E2F0" height="32.3984" rx="2.5" ry="2.5" style="stroke:#181818;stroke-width:0.5;" width="147" x="662.5" y="1158.3516"/><text fill="#000000" font-family="Times New Roman" font-size="16" lengthAdjust="spacing" textLength="133" x="669.5" y="1180.6289">&#1057;&#1077;&#1088;&#1074;&#1080;&#1089; &#1076;&#1086;&#1082;&#1091;&#1084;&#1077;&#1085;&#1090;&#1086;&#1074;</text><rect fill="#E2E2F0" height="32.3984" rx="2.5" ry="2.5" style="stroke:#181818;stroke-width:0.5;" width="98" x="819.5" y="50"/><text fill="#000000" font-family="Times New Roman" font-size="16" lengthAdjust="spacing" textLength="84" x="826.5" y="72.2773">LLM-&#1089;&#1077;&#1088;&#1074;&#1080;&#1089;</text><rect fill="#E2E2F0" height="32.3984" rx="2.5" ry="2.5" style="stroke:#181818;stroke-width:0.5;" width="98" x="819.5" y="1158.3516"/><text fill="#000000" font-family="Times New Roman" font-size="16" lengthAdjust="spacing" textLength="84" x="826.5" y="1180.6289">LLM-&#1089;&#1077;&#1088;&#1074;&#1080;&#1089;</text><rect fill="#E2E2F0" height="32.3984" rx="2.5" ry="2.5" style="stroke:#181818;stroke-width:0.5;" width="155" x="927.5" y="50"/><text fill="#000000" font-family="Times New Roman" font-size="16" lengthAdjust="spacing" textLength="141" x="934.5" y="72.2773">&#1052;&#1086;&#1076;&#1091;&#1083;&#1100; &#1074;&#1099;&#1095;&#1080;&#1089;&#1083;&#1077;&#1085;&#1080;&#1081;</text><rect fill="#E2E2F0" height="32.3984" rx="2.5" ry="2.5" style="stroke:#181818;stroke-width:0.5;" width="155" x="927.5" y="1158.3516"/><text fill="#000000" font-family="Times New Roman" font-size="16" lengthAdjust="spacing" textLength="141" x="934.5" y="1180.6289">&#1052;&#1086;&#1076;&#1091;&#1083;&#1100; &#1074;&#1099;&#1095;&#1080;&#1089;&#1083;&#1077;&#1085;&#1080;&#1081;</text><rect fill="#E2E2F0" height="32.3984" rx="2.5" ry="2.5" style="stroke:#181818;stroke-width:0.5;" width="121" x="1092.5" y="50"/><text fill="#000000" font-family="Times New Roman" font-size="16" lengthAdjust="spacing" textLength="107" x="1099.5" y="72.2773">&#1057;&#1077;&#1088;&#1074;&#1080;&#1089; &#1086;&#1090;&#1095;&#1105;&#1090;&#1086;&#1074;</text><rect fill="#E2E2F0" height="32.3984" rx="2.5" ry="2.5" style="stroke:#181818;stroke-width:0.5;" width="121" x="1092.5" y="1158.3516"/><text fill="#000000" font-family="Times New Roman" font-size="16" lengthAdjust="spacing" textLength="107" x="1099.5" y="1180.6289">&#1057;&#1077;&#1088;&#1074;&#1080;&#1089; &#1086;&#1090;&#1095;&#1105;&#1090;&#1086;&#1074;</text><rect fill="#EEEEEE" height="3" style="stroke:#EEEEEE;stroke-width:1.0;" width="1218.5" x="0" y="115.5977"/><line style="stroke:#000000;stroke-width:1.0;" x1="0" x2="1218.5" y1="115.5977" y2="115.5977"/><line style="stroke:#000000;stroke-width:1.0;" x1="0" x2="1218.5" y1="118.5977" y2="118.5977"/><rect fill="#EEEEEE" height="26.3984" style="stroke:#000000;stroke-width:2.0;" width="144" x="537.25" y="103.3984"/><text fill="#000000" font-family="Times New Roman" font-size="16" font-weight="bold" lengthAdjust="spacing" textLength="126" x="543.25" y="122.6758">&#1040;&#1091;&#1090;&#1077;&#1085;&#1090;&#1080;&#1092;&#1080;&#1082;&#1072;&#1094;&#1080;&#1103;</text><polygon fill="#181818" points="224,160.1953,234,164.1953,224,168.1953,228,164.1953" style="stroke:#181818;stroke-width:1.0;"/><line style="stroke:#181818;stroke-width:1.0;" x1="54" x2="230" y1="164.1953" y2="164.1953"/><text fill="#000000" font-family="Times New Roman" font-size="16" lengthAdjust="spacing" textLength="158" x="61" y="159.0742">&#1042;&#1074;&#1086;&#1076; &#1076;&#1072;&#1085;&#1085;&#1099;&#1093; &#1076;&#1083;&#1103; &#1074;&#1093;&#1086;&#1076;&#1072;</text><polygon fill="#181818" points="415.5,192.5938,425.5,196.5938,415.5,200.5938,419.5,196.5938" style="stroke:#181818;stroke-width:1.0;"/><line style="stroke:#181818;stroke-width:1.0;" x1="236" x2="421.5" y1="196.5938" y2="196.5938"/><text fill="#000000" font-family="Times New Roman" font-size="16" lengthAdjust="spacing" textLength="102" x="243" y="191.4727">&#1047;&#1072;&#1087;&#1088;&#1086;&#1089; &#1085;&#1072; &#1074;&#1093;&#1086;&#1076;</text><polygon fill="#181818" points="247,224.9922,237,228.9922,247,232.9922,243,228.9922" style="stroke:#181818;stroke-width:1.0;"/><line style="stroke:#181818;stroke-width:1.0;stroke-dasharray:2.0,2.0;" x1="241" x2="426.5" y1="228.9922" y2="228.9922"/><text fill="#000000" font-family="Times New Roman" font-size="16" lengthAdjust="spacing" textLength="108" x="253" y="223.8711">&#1058;&#1086;&#1082;&#1077;&#1085;&#1099; &#1076;&#1086;&#1089;&#1090;&#1091;&#1087;&#1072;</text><rect fill="#EEEEEE" height="3" style="stroke:#EEEEEE;stroke-width:1.0;" width="1218.5" x="0" y="259.1914"/><line style="stroke:#000000;stroke-width:1.0;" x1="0" x2="1218.5" y1="259.1914" y2="259.1914"/><line style="stroke:#000000;stroke-width:1.0;" x1="0" x2="1218.5" y1="262.1914" y2="262.1914"/><rect fill="#EEEEEE" height="26.3984" style="stroke:#000000;stroke-width:2.0;" width="145" x="536.75" y="246.9922"/><text fill="#000000" font-family="Times New Roman" font-size="16" font-weight="bold" lengthAdjust="spacing" textLength="127" x="542.75" y="266.2695">&#1047;&#1072;&#1075;&#1088;&#1091;&#1079;&#1082;&#1072; &#1084;&#1086;&#1076;&#1077;&#1083;&#1077;&#1081;</text><polygon fill="#181818" points="224,303.7891,234,307.7891,224,311.7891,228,307.7891" style="stroke:#181818;stroke-width:1.0;"/><line style="stroke:#181818;stroke-width:1.0;" x1="54" x2="230" y1="307.7891" y2="307.7891"/><text fill="#000000" font-family="Times New Roman" font-size="16" lengthAdjust="spacing" textLength="157" x="61" y="302.668">&#1054;&#1090;&#1082;&#1088;&#1099;&#1090;&#1080;&#1077; &#1087;&#1088;&#1080;&#1083;&#1086;&#1078;&#1077;&#1085;&#1080;&#1103;</text><polygon fill="#181818" points="578,336.1875,588,340.1875,578,344.1875,582,340.1875" style="stroke:#181818;stroke-width:1.0;"/><line style="stroke:#181818;stroke-width:1.0;" x1="236" x2="584" y1="340.1875" y2="340.1875"/><text fill="#000000" font-family="Times New Roman" font-size="16" lengthAdjust="spacing" textLength="177" x="243" y="335.0664">&#1055;&#1086;&#1083;&#1091;&#1095;&#1080;&#1090;&#1100; &#1089;&#1087;&#1080;&#1089;&#1086;&#1082; &#1084;&#1086;&#1076;&#1077;&#1083;&#1077;&#1081;</text><polygon fill="#181818" points="247,368.5859,237,372.5859,247,376.5859,243,372.5859" style="stroke:#181818;stroke-width:1.0;"/><line style="stroke:#181818;stroke-width:1.0;stroke-dasharray:2.0,2.0;" x1="241" x2="589" y1="372.5859" y2="372.5859"/><text fill="#000000" font-family="Times New Roman" font-size="16" lengthAdjust="spacing" textLength="112" x="253" y="367.4648">&#1057;&#1087;&#1080;&#1089;&#1086;&#1082; &#1084;&#1086;&#1076;&#1077;&#1083;&#1077;&#1081;</text><rect fill="#EEEEEE" height="3" style="stroke:#EEEEEE;stroke-width:1.0;" width="1218.5" x="0" y="402.7852"/><line style="stroke:#000000;stroke-width:1.0;" x1="0" x2="1218.5" y1="402.7852" y2="402.7852"/><line style="stroke:#000000;stroke-width:1.0;" x1="0" x2="1218.5" y1="405.7852" y2="405.7852"/><rect fill="#EEEEEE" height="26.3984" style="stroke:#000000;stroke-width:2.0;" width="150" x="534.25" y="390.5859"/><text fill="#000000" font-family="Times New Roman" font-size="16" font-weight="bold" lengthAdjust="spacing" textLength="132" x="540.25" y="409.8633">&#1054;&#1090;&#1082;&#1088;&#1099;&#1090;&#1080;&#1077; &#1084;&#1086;&#1076;&#1077;&#1083;&#1080;</text><polygon fill="#181818" points="224,447.3828,234,451.3828,224,455.3828,228,451.3828" style="stroke:#181818;stroke-width:1.0;"/><line style="stroke:#181818;stroke-width:1.0;" x1="54" x2="230" y1="451.3828" y2="451.3828"/><text fill="#000000" font-family="Times New Roman" font-size="16" lengthAdjust="spacing" textLength="99" x="61" y="446.2617">&#1042;&#1099;&#1073;&#1086;&#1088; &#1084;&#1086;&#1076;&#1077;&#1083;&#1080;</text><polygon fill="#181818" points="578,479.7813,588,483.7813,578,487.7813,582,483.7813" style="stroke:#181818;stroke-width:1.0;"/><line style="stroke:#181818;stroke-width:1.0;" x1="236" x2="584" y1="483.7813" y2="483.7813"/><text fill="#000000" font-family="Times New Roman" font-size="16" lengthAdjust="spacing" textLength="265" x="243" y="478.6602">&#1055;&#1086;&#1083;&#1091;&#1095;&#1080;&#1090;&#1100; &#1076;&#1072;&#1085;&#1085;&#1099;&#1077; &#1084;&#1086;&#1076;&#1077;&#1083;&#1080; &#1080; &#1087;&#1072;&#1088;&#1072;&#1084;&#1077;&#1090;&#1088;&#1099;</text><polygon fill="#181818" points="247,512.1797,237,516.1797,247,520.1797,243,516.1797" style="stroke:#181818;stroke-width:1.0;"/><line style="stroke:#181818;stroke-width:1.0;stroke-dasharray:2.0,2.0;" x1="241" x2="589" y1="516.1797" y2="516.1797"/><text fill="#000000" font-family="Times New Roman" font-size="16" lengthAdjust="spacing" textLength="108" x="253" y="511.0586">&#1044;&#1072;&#1085;&#1085;&#1099;&#1077; &#1084;&#1086;&#1076;&#1077;&#1083;&#1080;</text><rect fill="#EEEEEE" height="3" style="stroke:#EEEEEE;stroke-width:1.0;" width="1218.5" x="0" y="546.3789"/><line style="stroke:#000000;stroke-width:1.0;" x1="0" x2="1218.5" y1="546.3789" y2="546.3789"/><line style="stroke:#000000;stroke-width:1.0;" x1="0" x2="1218.5" y1="549.3789" y2="549.3789"/><rect fill="#EEEEEE" height="26.3984" style="stroke:#000000;stroke-width:2.0;" width="351" x="433.75" y="534.1797"/><text fill="#000000" font-family="Times New Roman" font-size="16" font-weight="bold" lengthAdjust="spacing" textLength="333" x="439.75" y="553.457">&#1047;&#1072;&#1075;&#1088;&#1091;&#1079;&#1082;&#1072; &#1076;&#1086;&#1082;&#1091;&#1084;&#1077;&#1085;&#1090;&#1072; &#1080; &#1080;&#1079;&#1074;&#1083;&#1077;&#1095;&#1077;&#1085;&#1080;&#1077; &#1087;&#1072;&#1088;&#1072;&#1084;&#1077;&#1090;&#1088;&#1086;&#1074;</text><polygon fill="#181818" points="224,590.9766,234,594.9766,224,598.9766,228,594.9766" style="stroke:#181818;stroke-width:1.0;"/><line style="stroke:#181818;stroke-width:1.0;" x1="54" x2="230" y1="594.9766" y2="594.9766"/><text fill="#000000" font-family="Times New Roman" font-size="16" lengthAdjust="spacing" textLength="130" x="61" y="589.8555">&#1047;&#1072;&#1075;&#1088;&#1091;&#1079;&#1082;&#1072; &#1076;&#1086;&#1082;&#1091;&#1084;&#1077;&#1085;&#1090;&#1072;</text><polygon fill="#181818" points="724,623.375,734,627.375,724,631.375,728,627.375" style="stroke:#181818;stroke-width:1.0;"/><line style="stroke:#181818;stroke-width:1.0;" x1="236" x2="730" y1="627.375" y2="627.375"/><text fill="#000000" font-family="Times New Roman" font-size="16" lengthAdjust="spacing" textLength="132" x="243" y="622.2539">&#1047;&#1072;&#1075;&#1088;&#1091;&#1079;&#1080;&#1090;&#1100; &#1076;&#1086;&#1082;&#1091;&#1084;&#1077;&#1085;&#1090;</text><polygon fill="#181818" points="247,655.7734,237,659.7734,247,663.7734,243,659.7734" style="stroke:#181818;stroke-width:1.0;"/><line style="stroke:#181818;stroke-width:1.0;stroke-dasharray:2.0,2.0;" x1="241" x2="735" y1="659.7734" y2="659.7734"/><text fill="#000000" font-family="Times New Roman" font-size="16" lengthAdjust="spacing" textLength="90" x="253" y="654.6523">ID &#1076;&#1086;&#1082;&#1091;&#1084;&#1077;&#1085;&#1090;&#1072;</text><polygon fill="#181818" points="224,688.1719,234,692.1719,224,696.1719,228,692.1719" style="stroke:#181818;stroke-width:1.0;"/><line style="stroke:#181818;stroke-width:1.0;" x1="54" x2="230" y1="692.1719" y2="692.1719"/><text fill="#000000" font-family="Times New Roman" font-size="16" lengthAdjust="spacing" textLength="133" x="61" y="687.0508">&#1048;&#1079;&#1074;&#1083;&#1077;&#1095;&#1100; &#1087;&#1072;&#1088;&#1072;&#1084;&#1077;&#1090;&#1088;&#1099;</text><polygon fill="#181818" points="856.5,720.5703,866.5,724.5703,856.5,728.5703,860.5,724.5703" style="stroke:#181818;stroke-width:1.0;"/><line style="stroke:#181818;stroke-width:1.0;" x1="236" x2="862.5" y1="724.5703" y2="724.5703"/><text fill="#000000" font-family="Times New Roman" font-size="16" lengthAdjust="spacing" textLength="163" x="243" y="719.4492">&#1048;&#1079;&#1074;&#1083;&#1077;&#1095;&#1077;&#1085;&#1080;&#1077; &#1087;&#1072;&#1088;&#1072;&#1084;&#1077;&#1090;&#1088;&#1086;&#1074;</text><polygon fill="#181818" points="247,752.9688,237,756.9688,247,760.9688,243,756.9688" style="stroke:#181818;stroke-width:1.0;"/><line style="stroke:#181818;stroke-width:1.0;stroke-dasharray:2.0,2.0;" x1="241" x2="867.5" y1="756.9688" y2="756.9688"/><text fill="#000000" font-family="Times New Roman" font-size="16" lengthAdjust="spacing" textLength="76" x="253" y="751.8477">&#1055;&#1072;&#1088;&#1072;&#1084;&#1077;&#1090;&#1088;&#1099;</text><rect fill="#EEEEEE" height="3" style="stroke:#EEEEEE;stroke-width:1.0;" width="1218.5" x="0" y="787.168"/><line style="stroke:#000000;stroke-width:1.0;" x1="0" x2="1218.5" y1="787.168" y2="787.168"/><line style="stroke:#000000;stroke-width:1.0;" x1="0" x2="1218.5" y1="790.168" y2="790.168"/><rect fill="#EEEEEE" height="26.3984" style="stroke:#000000;stroke-width:2.0;" width="67" x="575.75" y="774.9688"/><text fill="#000000" font-family="Times New Roman" font-size="16" font-weight="bold" lengthAdjust="spacing" textLength="49" x="581.75" y="794.2461">&#1056;&#1072;&#1089;&#1095;&#1105;&#1090;</text><polygon fill="#181818" points="224,831.7656,234,835.7656,224,839.7656,228,835.7656" style="stroke:#181818;stroke-width:1.0;"/><line style="stroke:#181818;stroke-width:1.0;" x1="54" x2="230" y1="835.7656" y2="835.7656"/><text fill="#000000" font-family="Times New Roman" font-size="16" lengthAdjust="spacing" textLength="116" x="61" y="830.6445">&#1047;&#1072;&#1087;&#1091;&#1089;&#1090;&#1080;&#1090;&#1100; &#1088;&#1072;&#1089;&#1095;&#1105;&#1090;</text><polygon fill="#181818" points="578,864.1641,588,868.1641,578,872.1641,582,868.1641" style="stroke:#181818;stroke-width:1.0;"/><line style="stroke:#181818;stroke-width:1.0;" x1="236" x2="584" y1="868.1641" y2="868.1641"/><text fill="#000000" font-family="Times New Roman" font-size="16" lengthAdjust="spacing" textLength="191" x="243" y="863.043">&#1054;&#1090;&#1087;&#1088;&#1072;&#1074;&#1080;&#1090;&#1100; &#1079;&#1072;&#1087;&#1088;&#1086;&#1089; &#1085;&#1072; &#1088;&#1072;&#1089;&#1095;&#1105;&#1090;</text><polygon fill="#181818" points="993,896.5625,1003,900.5625,993,904.5625,997,900.5625" style="stroke:#181818;stroke-width:1.0;"/><line style="stroke:#181818;stroke-width:1.0;" x1="590" x2="999" y1="900.5625" y2="900.5625"/><text fill="#000000" font-family="Times New Roman" font-size="16" lengthAdjust="spacing" textLength="85" x="597" y="895.4414">&#1042;&#1099;&#1095;&#1080;&#1089;&#1083;&#1077;&#1085;&#1080;&#1077;</text><polygon fill="#181818" points="601,928.9609,591,932.9609,601,936.9609,597,932.9609" style="stroke:#181818;stroke-width:1.0;"/><line style="stroke:#181818;stroke-width:1.0;stroke-dasharray:2.0,2.0;" x1="595" x2="1004" y1="932.9609" y2="932.9609"/><text fill="#000000" font-family="Times New Roman" font-size="16" lengthAdjust="spacing" textLength="65" x="607" y="927.8398">&#1056;&#1077;&#1079;&#1091;&#1083;&#1100;&#1090;&#1072;&#1090;</text><polygon fill="#181818" points="247,961.3594,237,965.3594,247,969.3594,243,965.3594" style="stroke:#181818;stroke-width:1.0;"/><line style="stroke:#181818;stroke-width:1.0;stroke-dasharray:2.0,2.0;" x1="241" x2="589" y1="965.3594" y2="965.3594"/><text fill="#000000" font-family="Times New Roman" font-size="16" lengthAdjust="spacing" textLength="65" x="253" y="960.2383">&#1056;&#1077;&#1079;&#1091;&#1083;&#1100;&#1090;&#1072;&#1090;</text><rect fill="#EEEEEE" height="3" style="stroke:#EEEEEE;stroke-width:1.0;" width="1218.5" x="0" y="995.5586"/><line style="stroke:#000000;stroke-width:1.0;" x1="0" x2="1218.5" y1="995.5586" y2="995.5586"/><line style="stroke:#000000;stroke-width:1.0;" x1="0" x2="1218.5" y1="998.5586" y2="998.5586"/><rect fill="#EEEEEE" height="26.3984" style="stroke:#000000;stroke-width:2.0;" width="180" x="519.25" y="983.3594"/><text fill="#000000" font-family="Times New Roman" font-size="16" font-weight="bold" lengthAdjust="spacing" textLength="162" x="525.25" y="1002.6367">&#1060;&#1086;&#1088;&#1084;&#1080;&#1088;&#1086;&#1074;&#1072;&#1085;&#1080;&#1077; &#1086;&#1090;&#1095;&#1105;&#1090;&#1072;</text><polygon fill="#181818" points="224,1040.1563,234,1044.1563,224,1048.1563,228,1044.1563" style="stroke:#181818;stroke-width:1.0;"/><line style="stroke:#181818;stroke-width:1.0;" x1="54" x2="230" y1="1044.1563" y2="1044.1563"/><text fill="#000000" font-family="Times New Roman" font-size="16" lengthAdjust="spacing" textLength="95" x="61" y="1039.0352">&#1057;&#1086;&#1079;&#1076;&#1072;&#1090;&#1100; &#1086;&#1090;&#1095;&#1105;&#1090;</text><polygon fill="#181818" points="1141,1072.5547,1151,1076.5547,1141,1080.5547,1145,1076.5547" style="stroke:#181818;stroke-width:1.0;"/><line style="stroke:#181818;stroke-width:1.0;" x1="236" x2="1147" y1="1076.5547" y2="1076.5547"/><text fill="#000000" font-family="Times New Roman" font-size="16" lengthAdjust="spacing" textLength="180" x="243" y="1071.4336">&#1047;&#1072;&#1087;&#1088;&#1086;&#1089; &#1085;&#1072; &#1089;&#1086;&#1079;&#1076;&#1072;&#1085;&#1080;&#1077; &#1086;&#1090;&#1095;&#1105;&#1090;&#1072;</text><polygon fill="#181818" points="247,1104.9531,237,1108.9531,247,1112.9531,243,1108.9531" style="stroke:#181818;stroke-width:1.0;"/><line style="stroke:#181818;stroke-width:1.0;stroke-dasharray:2.0,2.0;" x1="241" x2="1152" y1="1108.9531" y2="1108.9531"/><text fill="#000000" font-family="Times New Roman" font-size="16" lengthAdjust="spacing" textLength="64" x="253" y="1103.832">ID &#1086;&#1090;&#1095;&#1105;&#1090;&#1072;</text><polygon fill="#181818" points="65,1137.3516,55,1141.3516,65,1145.3516,61,1141.3516" style="stroke:#181818;stroke-width:1.0;"/><line style="stroke:#181818;stroke-width:1.0;stroke-dasharray:2.0,2.0;" x1="59" x2="235" y1="1141.3516" y2="1141.3516"/><text fill="#000000" font-family="Times New Roman" font-size="16" lengthAdjust="spacing" textLength="82" x="71" y="1136.2305">&#1054;&#1090;&#1095;&#1105;&#1090; &#1075;&#1086;&#1090;&#1086;&#1074;</text><!--SRC=[ZLHDQnDH5Ds_N_78FWitBWefY4KGsYuQ_G53Ek9WaWd9j8AhV5YxY50LGH6nZVW3nhHnniGaV-6zV-IvzoNpFL586ERDEVUUU-wzh_V2QNUihjMIf_OpwwpfFNBRth7LicNbYTEoU_BOVYbFt9RLheXU4RRklBBblVj2M0tFxKfrhLPgeT-g0C-fylLGpUXTMZtvj6Tt1G9uJiFfM6rFLjGNjL0X44izr0Cr1sScrLhtSRZ0oo_wH80AyHys7RljPI9Cr0pmgGhrG2BTY1CY70vUWpd7sHiyGuxmuCnxlel_1pdlI33-lvbnv9xQpVfvOnVh3gov7e5jCgDmvXwuZHppyF2eYaeZDWDnc8d_bOGW93cdfdgiBmdCkiWFewtkDizpZgQKhM3hfNwVq7HYTzokHx94hIRLkpB3z9MirGHrJ5RtDyxlIVK1aQ6CQlQXP0bb5_Io01uwBzW_NnWyCSbny3u1JcrTaQgbyYEm882i9dDy9pjPqvYzrGDKCL9hn6ND5EjMzt4KaDfCrmfbVqDvSr36L6RXYEchXEXjq_UsupnY_uTe1fgmvbP0OoQpsDBIvKpA2LnEJbkC2OjxeCVg9spffw3_9p_kMpOJ_M0nVF5fa866f9AIFfO4AUbFTZzyJXRYyvICWBZDbkSKqDWMUl3l70a_p1vcM94VAPums5IvZm-AmkSaVOxheS1vBsD1sFSqOQS10l2q_zUvs6py3Ou7PjzBJLjZ60Qyx3pD_PXIF40qdMjEDjrQ5cHtEHKbdfZzpGLbHZPpWys4-SY59VBTu7jWBZwoEHKmMKiUnnRyeBs0Bw6nZkUKVOrlGh_GcmdW0Ms7gJ629ro9hiwY-umNFDYiLpQZYAYvmKgYjga08Nt6_Kq_rIr1UHp-0W00]--></g></svg>