<svg width="204" height="204" viewBox="0 0 204 204" fill="none" xmlns="http://www.w3.org/2000/svg">
<path d="M102 144.5C104.408 144.5 106.427 143.685 108.056 142.056C109.685 140.427 110.5 138.408 110.5 136C110.5 133.592 109.685 131.573 108.056 129.944C106.427 128.315 104.408 127.5 102 127.5C99.5917 127.5 97.5729 128.315 95.9438 129.944C94.3146 131.573 93.5 133.592 93.5 136C93.5 138.408 94.3146 140.427 95.9438 142.056C97.5729 143.685 99.5917 144.5 102 144.5ZM93.5 110.5H110.5V59.5H93.5V110.5ZM102 187C90.2417 187 79.1917 184.769 68.85 180.306C58.5083 175.844 49.5125 169.788 41.8625 162.138C34.2125 154.488 28.1563 145.492 23.6938 135.15C19.2312 124.808 17 113.758 17 102C17 90.2417 19.2312 79.1917 23.6938 68.85C28.1563 58.5083 34.2125 49.5125 41.8625 41.8625C49.5125 34.2125 58.5083 28.1563 68.85 23.6938C79.1917 19.2312 90.2417 17 102 17C113.758 17 124.808 19.2312 135.15 23.6938C145.492 28.1563 154.488 34.2125 162.138 41.8625C169.788 49.5125 175.844 58.5083 180.306 68.85C184.769 79.1917 187 90.2417 187 102C187 113.758 184.769 124.808 180.306 135.15C175.844 145.492 169.788 154.488 162.138 162.138C154.488 169.788 145.492 175.844 135.15 180.306C124.808 184.769 113.758 187 102 187Z" fill="#FEF7FF"/>
</svg>
